<svg xmlns="http://www.w3.org/2000/svg" viewBox="0 0 64 64">
  <rect width="64" height="64" rx="14" fill="#451a03"/>
  <g transform="translate(32 32)">
    <polygon points="0,-8.3 7.2,-4.2 7.2,4.2 0,8.3 -7.2,4.2 -7.2,-4.2" fill="#fef3c7"/>
    <g fill="#f59e0b">
      <polygon points="15.6,-8.3 22.8,-4.2 22.8,4.2 15.6,8.3 8.4,4.2 8.4,-4.2"/>
      <polygon points="-15.6,-8.3 -8.4,-4.2 -8.4,4.2 -15.6,8.3 -22.8,4.2 -22.8,-4.2"/>
      <polygon points="7.8,5.2 15,9.3 15,17.7 7.8,21.8 0.6,17.7 0.6,9.3"/>
      <polygon points="-7.8,5.2 -0.6,9.3 -0.6,17.7 -7.8,21.8 -15,17.7 -15,9.3"/>
      <polygon points="7.8,-21.8 15,-17.7 15,-9.3 7.8,-5.2 0.6,-9.3 0.6,-17.7"/>
      <polygon points="-7.8,-21.8 -0.6,-17.7 -0.6,-9.3 -7.8,-5.2 -15,-9.3 -15,-17.7"/>
    </g>
  </g>
</svg>
